<svg xmlns="http://www.w3.org/2000/svg" viewBox="0 0 32 32" width="32" height="32">
  <!-- Document shape - navy blue -->
  <path d="M5 3 L21 3 L27 9 L27 29 L5 29 Z" fill="#0a1a6e" rx="1"/>
  <!-- Folded corner -->
  <path d="M21 3 L21 9 L27 9 Z" fill="#06124d"/>
  <!-- Neural network nodes and edges in cyan -->
  <!-- Edges first (behind nodes) -->
  <line x1="11" y1="12" x2="16" y2="10" stroke="#00c8d4" stroke-width="1" opacity="0.9"/>
  <line x1="11" y1="12" x2="9" y2="17" stroke="#00c8d4" stroke-width="1" opacity="0.9"/>
  <line x1="11" y1="12" x2="16" y2="16" stroke="#00c8d4" stroke-width="1" opacity="0.9"/>
  <line x1="16" y1="10" x2="21" y2="13" stroke="#00c8d4" stroke-width="1" opacity="0.9"/>
  <line x1="16" y1="16" x2="21" y2="13" stroke="#00c8d4" stroke-width="1" opacity="0.9"/>
  <line x1="16" y1="16" x2="14" y2="21" stroke="#00c8d4" stroke-width="1" opacity="0.9"/>
  <line x1="9" y1="17" x2="14" y2="21" stroke="#00c8d4" stroke-width="1" opacity="0.9"/>
  <line x1="21" y1="13" x2="22" y2="19" stroke="#00c8d4" stroke-width="1" opacity="0.9"/>
  <line x1="14" y1="21" x2="22" y2="19" stroke="#00c8d4" stroke-width="1" opacity="0.9"/>
  <!-- Nodes -->
  <circle cx="16" cy="10" r="1.5" fill="#00e5f0"/>
  <circle cx="11" cy="12" r="1.5" fill="#00e5f0"/>
  <circle cx="21" cy="13" r="1.5" fill="#00e5f0"/>
  <circle cx="9"  cy="17" r="1.5" fill="#00e5f0"/>
  <circle cx="16" cy="16" r="1.5" fill="#00e5f0"/>
  <circle cx="22" cy="19" r="1.5" fill="#00e5f0"/>
  <circle cx="14" cy="21" r="1.5" fill="#00e5f0"/>
</svg>
